<svg viewBox="0 0 32 32" fill="none" xmlns="http://www.w3.org/2000/svg">
  <path
    d="M1.81799 11.0067V20.7854C1.81799 23.8347 4.24999 26.3934 7.43733 26.6807C13.1113 27.1934 18.824 27.1934 24.4973 26.6807C27.6853 26.3934 30.1167 23.8347 30.1167 20.7854V11.0067C30.1167 7.95735 27.6853 5.39869 24.498 5.11135C18.8226 4.59936 13.1127 4.59936 7.43733 5.11135C4.24999 5.39869 1.81799 7.95735 1.81799 11.0067Z"
    fill="var(--color-brand)" fill-opacity="0.8" />
  <path
    d="M28.4446 7.95602C28.704 7.67602 28.7086 7.23602 28.442 6.96336C27.3896 5.89595 25.9908 5.23922 24.4973 5.11136C18.824 4.59936 13.1113 4.59936 7.4373 5.11136C5.8153 5.25802 4.39197 5.99469 3.3833 7.08469C3.12197 7.36602 3.1433 7.80869 3.41463 8.08069L11.4766 16.1427C13.6333 18.2987 17.1613 18.3887 19.6186 16.338C22.7373 13.736 25.686 10.9347 28.4446 7.95602Z"
    fill="var(--color-border)" fill-opacity="0.8" />
</svg>